# xmcd
#
# Track frame offsets:
#	150
#	14361
#	30078
#	48642
#	67063
#	81763
#	97175
#	116444
#	133464
#	150641
#
# Disc length: 2192 seconds
#
# Revision: 0
# Processed by: cddbd v1.4PL0 Copyright (c) Steve Scherf et al.
# Submitted via: audiograbber 1.80.04
#
DISCID=83088e0a
DTITLE=Steve Wariner - Greatest Hits
DYEAR=1987
DGENRE=Country
TTITLE0=What I Didn't Do
TTITLE1=Heart Trouble
TTITLE2=Some Fools Never Learn
TTITLE3=You Can Dream Of Me
TTITLE4=Life's Highway
TTITLE5=That's How You Know When Love's Right
TTITLE6=Starting Over Again
TTITLE7=Small Town Girl
TTITLE8=The Weekend
TTITLE9=Lynda
EXTD=
EXTT0=
EXTT1=
EXTT2=
EXTT3=
EXTT4=
EXTT5=
EXTT6=
EXTT7=
EXTT8=
EXTT9=
PLAYORDER=
